<svg width="55" height="75" viewBox="0 0 55 75" fill="none" xmlns="http://www.w3.org/2000/svg">
<path fill-rule="evenodd" clip-rule="evenodd" d="M2 14C0.89543 14 0 14.8954 0 16V73C0 74.1046 0.895432 75 2 75H24.5C41.3447 75 55 61.3447 55 44.5C55 27.6553 41.3447 14 24.5 14H2ZM7.60393 20.5946C6.68824 20.5946 5.94592 21.3369 5.94592 22.2526V66.7474C5.94592 67.6631 6.68824 68.4054 7.60393 68.4054H25.1486C38.3512 68.4054 49.054 57.7026 49.054 44.5C49.054 31.2974 38.3512 20.5946 25.1486 20.5946H7.60393Z" fill="white"/>
<path fill-rule="evenodd" clip-rule="evenodd" d="M2 0C0.89543 0 0 0.895432 0 2V59C0 60.1046 0.895432 61 2 61H24.5C41.3447 61 55 47.3447 55 30.5C55 13.6553 41.3447 0 24.5 0H2ZM7.60393 6.59459C6.68824 6.59459 5.94592 7.33691 5.94592 8.2526V52.7474C5.94592 53.6631 6.68824 54.4054 7.60393 54.4054H25.1486C38.3512 54.4054 49.054 43.7026 49.054 30.5C49.054 17.2974 38.3512 6.59459 25.1486 6.59459H7.60393Z" fill="white"/>
</svg>
